%TF.GenerationSoftware,KiCad,Pcbnew,8.99.0-3458-gcd40f6046b*%
%TF.CreationDate,2025-06-07T23:36:47+05:30*%
%TF.ProjectId,SkyViper  Lighting,536b7956-6970-4657-9220-204c69676874,rev?*%
%TF.SameCoordinates,Original*%
%TF.FileFunction,Copper,L1,Top*%
%TF.FilePolarity,Positive*%
%FSLAX46Y46*%
G04 Gerber Fmt 4.6, Leading zero omitted, Abs format (unit mm)*
G04 Created by KiCad (PCBNEW 8.99.0-3458-gcd40f6046b) date 2025-06-07 23:36:47*
%MOMM*%
%LPD*%
G01*
G04 APERTURE LIST*
G04 Aperture macros list*
%AMRoundRect*
0 Rectangle with rounded corners*
0 $1 Rounding radius*
0 $2 $3 $4 $5 $6 $7 $8 $9 X,Y pos of 4 corners*
0 Add a 4 corners polygon primitive as box body*
4,1,4,$2,$3,$4,$5,$6,$7,$8,$9,$2,$3,0*
0 Add four circle primitives for the rounded corners*
1,1,$1+$1,$2,$3*
1,1,$1+$1,$4,$5*
1,1,$1+$1,$6,$7*
1,1,$1+$1,$8,$9*
0 Add four rect primitives between the rounded corners*
20,1,$1+$1,$2,$3,$4,$5,0*
20,1,$1+$1,$4,$5,$6,$7,0*
20,1,$1+$1,$6,$7,$8,$9,0*
20,1,$1+$1,$8,$9,$2,$3,0*%
G04 Aperture macros list end*
%TA.AperFunction,SMDPad,CuDef*%
%ADD10R,1.300000X1.700000*%
%TD*%
%TA.AperFunction,SMDPad,CuDef*%
%ADD11RoundRect,0.090000X-0.660000X-0.360000X0.660000X-0.360000X0.660000X0.360000X-0.660000X0.360000X0*%
%TD*%
%TA.AperFunction,ComponentPad*%
%ADD12R,2.000000X2.000000*%
%TD*%
%TA.AperFunction,ViaPad*%
%ADD13C,0.600000*%
%TD*%
%TA.AperFunction,Conductor*%
%ADD14C,0.200000*%
%TD*%
G04 APERTURE END LIST*
D10*
%TO.P,C4,1,+*%
%TO.N,+5V*%
X182000000Y-73400000D03*
%TO.P,C4,2,-*%
%TO.N,GND*%
X182000000Y-76100000D03*
%TD*%
D11*
%TO.P,D10,1,VDD*%
%TO.N,+5V*%
X155050000Y-73100000D03*
%TO.P,D10,2,DOUT*%
%TO.N,Net-(D10-DOUT)*%
X155050000Y-76400000D03*
%TO.P,D10,3,VSS*%
%TO.N,GND*%
X159950000Y-76400000D03*
%TO.P,D10,4,DIN*%
%TO.N,Net-(D11-DOUT)*%
X159950000Y-73100000D03*
%TD*%
%TO.P,D11,1,VDD*%
%TO.N,+5V*%
X164550000Y-73100000D03*
%TO.P,D11,2,DOUT*%
%TO.N,Net-(D11-DOUT)*%
X164550000Y-76400000D03*
%TO.P,D11,3,VSS*%
%TO.N,GND*%
X169450000Y-76400000D03*
%TO.P,D11,4,DIN*%
%TO.N,Net-(D10-DOUT)*%
X169450000Y-73100000D03*
%TD*%
%TO.P,D12,1,VDD*%
%TO.N,+5V*%
X174050000Y-73100000D03*
%TO.P,D12,2,DOUT*%
%TO.N,Net-(D10-DOUT)*%
X174050000Y-76400000D03*
%TO.P,D12,3,VSS*%
%TO.N,GND*%
X178950000Y-76400000D03*
%TO.P,D12,4,DIN*%
%TO.N,Net-(D11-DOUT)*%
X178950000Y-73100000D03*
%TD*%
D12*
%TO.P,REF\u002A\u002A,1*%
%TO.N,Net-(D11-DOUT)*%
X184500000Y-74250000D03*
%TD*%
%TO.P,REF\u002A\u002A,1*%
%TO.N,+5V*%
X184500000Y-72000000D03*
%TD*%
%TO.P,REF\u002A\u002A,1*%
%TO.N,GND*%
X184500000Y-76500000D03*
%TD*%
D13*
%TO.N,Net-(D11-DOUT)*%
X178950000Y-73100000D03*
%TD*%
D14*
%TO.N,GND*%
X183750000Y-77250000D02*
X182250000Y-77250000D01*
X182000000Y-76100000D02*
X182000000Y-77000000D01*
X182250000Y-77250000D02*
X182000000Y-77000000D01*
X184500000Y-76500000D02*
X183750000Y-77250000D01*
X182400000Y-76500000D02*
X182000000Y-76100000D01*
%TO.N,+5V*%
X182000000Y-73400000D02*
X182000000Y-71250000D01*
X174000000Y-71250000D02*
X174000000Y-73050000D01*
X174000000Y-73050000D02*
X174050000Y-73100000D01*
X182000000Y-71250000D02*
X174000000Y-71250000D01*
%TO.N,Net-(D10-DOUT)*%
X169850000Y-73100000D02*
X169450000Y-73100000D01*
X174050000Y-76400000D02*
X173150000Y-76400000D01*
X173150000Y-76400000D02*
X169850000Y-73100000D01*
%TO.N,GND*%
X160000000Y-76450000D02*
X159950000Y-76400000D01*
X169500000Y-77750000D02*
X160000000Y-77750000D01*
X169500000Y-76450000D02*
X169450000Y-76400000D01*
X178950000Y-76400000D02*
X179000000Y-76450000D01*
X160000000Y-77750000D02*
X160000000Y-76450000D01*
X169500000Y-77750000D02*
X169500000Y-76450000D01*
X179000000Y-76450000D02*
X179000000Y-77750000D01*
X179000000Y-77750000D02*
X169500000Y-77750000D01*
%TO.N,+5V*%
X182500000Y-72000000D02*
X182500000Y-72900000D01*
X182500000Y-72900000D02*
X182000000Y-73400000D01*
X184500000Y-72000000D02*
X182500000Y-72000000D01*
%TO.N,GND*%
X182000000Y-77750000D02*
X179000000Y-77750000D01*
X182000000Y-77000000D02*
X182000000Y-77750000D01*
%TO.N,+5V*%
X155000000Y-71250000D02*
X155000000Y-73050000D01*
X155000000Y-73050000D02*
X155050000Y-73100000D01*
X164500000Y-71250000D02*
X164500000Y-73050000D01*
X164500000Y-73050000D02*
X164550000Y-73100000D01*
X164500000Y-71250000D02*
X155000000Y-71250000D01*
X174000000Y-71250000D02*
X164500000Y-71250000D01*
%TO.N,Net-(D11-DOUT)*%
X163250000Y-76400000D02*
X159950000Y-73100000D01*
X164550000Y-76400000D02*
X163250000Y-76400000D01*
%TD*%
M02*
