%TF.GenerationSoftware,KiCad,Pcbnew,8.99.0-3458-gcd40f6046b*%
%TF.CreationDate,2025-06-07T23:36:47+05:30*%
%TF.ProjectId,SkyViper  Lighting,536b7956-6970-4657-9220-204c69676874,rev?*%
%TF.SameCoordinates,Original*%
%TF.FileFunction,Legend,Top*%
%TF.FilePolarity,Positive*%
%FSLAX46Y46*%
G04 Gerber Fmt 4.6, Leading zero omitted, Abs format (unit mm)*
G04 Created by KiCad (PCBNEW 8.99.0-3458-gcd40f6046b) date 2025-06-07 23:36:47*
%MOMM*%
%LPD*%
G01*
G04 APERTURE LIST*
%ADD10C,0.150000*%
%ADD11C,0.200000*%
%ADD12C,0.120000*%
G04 APERTURE END LIST*
D10*
X156285714Y-71704819D02*
X156285714Y-70704819D01*
X156285714Y-70704819D02*
X156523809Y-70704819D01*
X156523809Y-70704819D02*
X156666666Y-70752438D01*
X156666666Y-70752438D02*
X156761904Y-70847676D01*
X156761904Y-70847676D02*
X156809523Y-70942914D01*
X156809523Y-70942914D02*
X156857142Y-71133390D01*
X156857142Y-71133390D02*
X156857142Y-71276247D01*
X156857142Y-71276247D02*
X156809523Y-71466723D01*
X156809523Y-71466723D02*
X156761904Y-71561961D01*
X156761904Y-71561961D02*
X156666666Y-71657200D01*
X156666666Y-71657200D02*
X156523809Y-71704819D01*
X156523809Y-71704819D02*
X156285714Y-71704819D01*
X157809523Y-71704819D02*
X157238095Y-71704819D01*
X157523809Y-71704819D02*
X157523809Y-70704819D01*
X157523809Y-70704819D02*
X157428571Y-70847676D01*
X157428571Y-70847676D02*
X157333333Y-70942914D01*
X157333333Y-70942914D02*
X157238095Y-70990533D01*
X158428571Y-70704819D02*
X158523809Y-70704819D01*
X158523809Y-70704819D02*
X158619047Y-70752438D01*
X158619047Y-70752438D02*
X158666666Y-70800057D01*
X158666666Y-70800057D02*
X158714285Y-70895295D01*
X158714285Y-70895295D02*
X158761904Y-71085771D01*
X158761904Y-71085771D02*
X158761904Y-71323866D01*
X158761904Y-71323866D02*
X158714285Y-71514342D01*
X158714285Y-71514342D02*
X158666666Y-71609580D01*
X158666666Y-71609580D02*
X158619047Y-71657200D01*
X158619047Y-71657200D02*
X158523809Y-71704819D01*
X158523809Y-71704819D02*
X158428571Y-71704819D01*
X158428571Y-71704819D02*
X158333333Y-71657200D01*
X158333333Y-71657200D02*
X158285714Y-71609580D01*
X158285714Y-71609580D02*
X158238095Y-71514342D01*
X158238095Y-71514342D02*
X158190476Y-71323866D01*
X158190476Y-71323866D02*
X158190476Y-71085771D01*
X158190476Y-71085771D02*
X158238095Y-70895295D01*
X158238095Y-70895295D02*
X158285714Y-70800057D01*
X158285714Y-70800057D02*
X158333333Y-70752438D01*
X158333333Y-70752438D02*
X158428571Y-70704819D01*
X153728571Y-73512295D02*
X153271428Y-73512295D01*
X153500000Y-73512295D02*
X153500000Y-72712295D01*
X153500000Y-72712295D02*
X153423809Y-72826580D01*
X153423809Y-72826580D02*
X153347619Y-72902771D01*
X153347619Y-72902771D02*
X153271428Y-72940866D01*
X165785714Y-71704819D02*
X165785714Y-70704819D01*
X165785714Y-70704819D02*
X166023809Y-70704819D01*
X166023809Y-70704819D02*
X166166666Y-70752438D01*
X166166666Y-70752438D02*
X166261904Y-70847676D01*
X166261904Y-70847676D02*
X166309523Y-70942914D01*
X166309523Y-70942914D02*
X166357142Y-71133390D01*
X166357142Y-71133390D02*
X166357142Y-71276247D01*
X166357142Y-71276247D02*
X166309523Y-71466723D01*
X166309523Y-71466723D02*
X166261904Y-71561961D01*
X166261904Y-71561961D02*
X166166666Y-71657200D01*
X166166666Y-71657200D02*
X166023809Y-71704819D01*
X166023809Y-71704819D02*
X165785714Y-71704819D01*
X167309523Y-71704819D02*
X166738095Y-71704819D01*
X167023809Y-71704819D02*
X167023809Y-70704819D01*
X167023809Y-70704819D02*
X166928571Y-70847676D01*
X166928571Y-70847676D02*
X166833333Y-70942914D01*
X166833333Y-70942914D02*
X166738095Y-70990533D01*
X168261904Y-71704819D02*
X167690476Y-71704819D01*
X167976190Y-71704819D02*
X167976190Y-70704819D01*
X167976190Y-70704819D02*
X167880952Y-70847676D01*
X167880952Y-70847676D02*
X167785714Y-70942914D01*
X167785714Y-70942914D02*
X167690476Y-70990533D01*
X163228571Y-73512295D02*
X162771428Y-73512295D01*
X163000000Y-73512295D02*
X163000000Y-72712295D01*
X163000000Y-72712295D02*
X162923809Y-72826580D01*
X162923809Y-72826580D02*
X162847619Y-72902771D01*
X162847619Y-72902771D02*
X162771428Y-72940866D01*
X175285714Y-71704819D02*
X175285714Y-70704819D01*
X175285714Y-70704819D02*
X175523809Y-70704819D01*
X175523809Y-70704819D02*
X175666666Y-70752438D01*
X175666666Y-70752438D02*
X175761904Y-70847676D01*
X175761904Y-70847676D02*
X175809523Y-70942914D01*
X175809523Y-70942914D02*
X175857142Y-71133390D01*
X175857142Y-71133390D02*
X175857142Y-71276247D01*
X175857142Y-71276247D02*
X175809523Y-71466723D01*
X175809523Y-71466723D02*
X175761904Y-71561961D01*
X175761904Y-71561961D02*
X175666666Y-71657200D01*
X175666666Y-71657200D02*
X175523809Y-71704819D01*
X175523809Y-71704819D02*
X175285714Y-71704819D01*
X176809523Y-71704819D02*
X176238095Y-71704819D01*
X176523809Y-71704819D02*
X176523809Y-70704819D01*
X176523809Y-70704819D02*
X176428571Y-70847676D01*
X176428571Y-70847676D02*
X176333333Y-70942914D01*
X176333333Y-70942914D02*
X176238095Y-70990533D01*
X177190476Y-70800057D02*
X177238095Y-70752438D01*
X177238095Y-70752438D02*
X177333333Y-70704819D01*
X177333333Y-70704819D02*
X177571428Y-70704819D01*
X177571428Y-70704819D02*
X177666666Y-70752438D01*
X177666666Y-70752438D02*
X177714285Y-70800057D01*
X177714285Y-70800057D02*
X177761904Y-70895295D01*
X177761904Y-70895295D02*
X177761904Y-70990533D01*
X177761904Y-70990533D02*
X177714285Y-71133390D01*
X177714285Y-71133390D02*
X177142857Y-71704819D01*
X177142857Y-71704819D02*
X177761904Y-71704819D01*
X172728571Y-73512295D02*
X172271428Y-73512295D01*
X172500000Y-73512295D02*
X172500000Y-72712295D01*
X172500000Y-72712295D02*
X172423809Y-72826580D01*
X172423809Y-72826580D02*
X172347619Y-72902771D01*
X172347619Y-72902771D02*
X172271428Y-72940866D01*
D11*
%TO.C,C4*%
X181225000Y-73150000D02*
X181225000Y-76350000D01*
X182775000Y-76350000D02*
X182775000Y-72550000D01*
D12*
%TO.C,D10*%
X154000000Y-72000000D02*
X154000000Y-77500000D01*
X154000000Y-72000000D02*
X161000000Y-72000000D01*
X154000000Y-77500000D02*
X160550000Y-77500000D01*
X154800000Y-75650000D02*
X154800000Y-73850000D01*
X160200000Y-75650000D02*
X160200000Y-73850000D01*
X160550000Y-77500000D02*
X161000000Y-77050000D01*
X161000000Y-77050000D02*
X161000000Y-72000000D01*
%TO.C,D11*%
X163500000Y-72000000D02*
X163500000Y-77500000D01*
X163500000Y-72000000D02*
X170500000Y-72000000D01*
X163500000Y-77500000D02*
X170050000Y-77500000D01*
X164300000Y-75650000D02*
X164300000Y-73850000D01*
X169700000Y-75650000D02*
X169700000Y-73850000D01*
X170050000Y-77500000D02*
X170500000Y-77050000D01*
X170500000Y-77050000D02*
X170500000Y-72000000D01*
%TO.C,D12*%
X173000000Y-72000000D02*
X173000000Y-77500000D01*
X173000000Y-72000000D02*
X180000000Y-72000000D01*
X173000000Y-77500000D02*
X179550000Y-77500000D01*
X173800000Y-75650000D02*
X173800000Y-73850000D01*
X179200000Y-75650000D02*
X179200000Y-73850000D01*
X179550000Y-77500000D02*
X180000000Y-77050000D01*
X180000000Y-77050000D02*
X180000000Y-72000000D01*
%TD*%
M02*
